<?xml version="1.0" encoding="UTF-8"?>
<svg xmlns="http://www.w3.org/2000/svg" viewBox="0 0 24 24" fill="none">
  <path d="M3 4.5h6a1.5 1.5 0 0 1 1.5 1.5v3A1.5 1.5 0 0 1 9 10.5H3A1.5 1.5 0 0 1 1.5 9V6A1.5 1.5 0 0 1 3 4.5Z" stroke="currentColor" stroke-width="1.6" stroke-linecap="round" stroke-linejoin="round"/>
  <path d="M15 4.5h6A1.5 1.5 0 0 1 22.5 6v3a1.5 1.5 0 0 1-1.5 1.5h-6A1.5 1.5 0 0 1 13.5 9V6A1.5 1.5 0 0 1 15 4.5Z" stroke="currentColor" stroke-width="1.6" stroke-linecap="round" stroke-linejoin="round"/>
  <path d="M3 13.5h6a1.5 1.5 0 0 1 1.5 1.5v3A1.5 1.5 0 0 1 9 19.5H3A1.5 1.5 0 0 1 1.5 18v-3A1.5 1.5 0 0 1 3 13.5Z" stroke="currentColor" stroke-width="1.6" stroke-linecap="round" stroke-linejoin="round"/>
  <path d="M15 13.5h6a1.5 1.5 0 0 1 1.5 1.5v3a1.5 1.5 0 0 1-1.5 1.5h-6a1.5 1.5 0 0 1-1.5-1.5v-3a1.5 1.5 0 0 1 1.5-1.5Z" stroke="currentColor" stroke-width="1.6" stroke-linecap="round" stroke-linejoin="round"/>
  <path d="M10.5 7.5h3M12 9v6M10.5 16.5h3" stroke="currentColor" stroke-width="1.4" stroke-linecap="round" stroke-linejoin="round"/>
</svg>
