<svg xmlns="http://www.w3.org/2000/svg" width="16" height="16" viewBox="0 0 16 16">
  <rect x="1" y="1" width="14" height="14" rx="2" fill="#3776AB"/>
  <path d="M4 5.2C4 4.2 4.8 3.4 5.8 3.4h2.4c1 0 1.8.8 1.8 1.8v1.2H6.2v.8h5.6c1 0 1.8.8 1.8 1.8v.8c0 1-.8 1.8-1.8 1.8H9.4v-1.8c0-1-.8-1.8-1.8-1.8H4V5.2z" fill="#FFD43B"/>
  <circle cx="7" cy="4.8" r=".7" fill="#3776AB"/>
  <path d="M12 10.8c0 1-.8 1.8-1.8 1.8H7.8c-1 0-1.8-.8-1.8-1.8V9.6h3.8v-.8H4.2C3.2 8.8 2.4 8 2.4 7V6.2c0-1 .8-1.8 1.8-1.8h2.4v1.8c0 1 .8 1.8 1.8 1.8H12v2.8z" fill="#FFE873"/>
  <circle cx="9" cy="11.2" r=".7" fill="#3776AB"/>
</svg>
